<svg width="23" height="23" viewBox="0 0 23 23" fill="none" xmlns="http://www.w3.org/2000/svg">
<path d="M19.6317 3.36826C17.4597 1.19622 14.5717 0 11.5 0C8.42829 0 5.54031 1.19622 3.36826 3.36826C1.19622 5.54031 0 8.42829 0 11.5C0 14.5717 1.19622 17.4597 3.36826 19.6317C5.54031 21.8038 8.42829 23 11.5 23C14.5717 23 17.4597 21.8038 19.6317 19.6317C21.8038 17.4597 23 14.5717 23 11.5C23 8.42829 21.8038 5.54031 19.6317 3.36826ZM11.5 21.2031C6.14973 21.2031 1.79688 16.8503 1.79688 11.5C1.79688 6.14973 6.14973 1.79688 11.5 1.79688C16.8503 1.79688 21.2031 6.14973 21.2031 11.5C21.2031 16.8503 16.8503 21.2031 11.5 21.2031ZM12.3984 10.6007H16.4414V12.3976H12.3984V16.4405H10.6016V12.3976H6.55859V10.6007H10.6016V6.55772H12.3984V10.6007Z" fill="#393939"/>
</svg>
