<svg width="13" height="13" viewBox="0 0 13 13" fill="none" xmlns="http://www.w3.org/2000/svg">
<g clip-path="url(#clip0)">
<path d="M12.1986 0H7.72859C7.28674 0 6.92732 0.359475 6.92732 0.801276C6.92732 1.24308 7.28674 1.60255 7.72859 1.60255H10.2642L6.03456 5.8321C5.88314 5.98343 5.7998 6.18462 5.7998 6.39872C5.7998 6.61282 5.88309 6.81396 6.03446 6.96515C6.18584 7.11666 6.38698 7.20004 6.60108 7.20004C6.81509 7.20004 7.01633 7.11671 7.16774 6.96529L11.3973 2.7357V5.27125C11.3973 5.71306 11.7568 6.07253 12.1986 6.07253C12.6404 6.07253 12.9998 5.71306 12.9998 5.27125V0.801276C12.9998 0.359475 12.6404 0 12.1986 0Z" fill="#393939"/>
<path d="M9.2095 11.6264H1.37362V3.79049H7.26694L8.64055 2.41687H0.686808C0.307507 2.41687 0 2.72438 0 3.10368V12.3132C0 12.6925 0.307507 13 0.686808 13H9.89631C10.2756 13 10.5831 12.6925 10.5831 12.3132V4.35944L9.2095 5.73306V11.6264Z" fill="#393939"/>
</g>
<defs>
<clipPath id="clip0">
<rect width="13" height="13" fill="white"/>
</clipPath>
</defs>
</svg>
