<svg width="19" height="19" viewBox="0 0 19 19" fill="none" xmlns="http://www.w3.org/2000/svg">
<g clip-path="url(#clip0)">
<path d="M17.8291 0H11.296C10.6503 0 10.125 0.525387 10.125 1.1711C10.125 1.81681 10.6503 2.34219 11.296 2.34219H15.0019L8.82015 8.52384C8.59884 8.74501 8.47705 9.03905 8.47705 9.35197C8.47705 9.66489 8.59878 9.95887 8.82001 10.1798C9.04125 10.4013 9.33523 10.5231 9.64815 10.5231C9.96093 10.5231 10.255 10.4013 10.4763 10.18L16.658 3.99832V7.70414C16.658 8.34985 17.1834 8.87524 17.8291 8.87524C18.4748 8.87524 19.0002 8.34985 19.0002 7.70414V1.1711C19.0002 0.525387 18.4748 0 17.8291 0Z" fill="white"/>
<path d="M13.46 16.9924H2.00759V5.53994H10.6209L12.6285 3.53235H1.0038C0.449433 3.53235 0 3.98178 0 4.53615V17.9962C0 18.5506 0.449433 19 1.0038 19H14.4638C15.0182 19 15.4676 18.5506 15.4676 17.9962V6.37149L13.46 8.37908V16.9924Z" fill="white"/>
</g>
<defs>
<clipPath id="clip0">
<rect width="19" height="19" fill="white"/>
</clipPath>
</defs>
</svg>
