<svg width="17" height="17" viewBox="0 0 17 17" fill="none" xmlns="http://www.w3.org/2000/svg">
<path d="M8.17567 0.00788709C4.82701 0.00788709 1.64712 -0.289997 0.432533 2.82718C-0.0691664 4.11463 0.00369074 5.78665 0.00369074 8.18079C0.00369074 10.2817 -0.0636329 12.2562 0.432533 13.5335C1.64436 16.6525 4.85007 16.3537 8.17382 16.3537C11.3805 16.3537 14.6867 16.6875 15.916 13.5335C16.4187 12.2331 16.3449 10.586 16.3449 8.18079C16.3449 4.98799 16.521 2.92678 14.9726 1.37926C13.4048 -0.18855 11.2845 0.00788709 8.17198 0.00788709H8.17567ZM7.44341 1.48071C14.4285 1.46964 15.3175 0.693114 14.8269 11.4806C14.6526 15.2959 11.7475 14.8772 8.17659 14.8772C1.66557 14.8772 1.47835 14.6909 1.47835 8.1771C1.47835 1.58769 1.99481 1.4844 7.44341 1.47886V1.48071ZM12.5379 2.83732C11.9965 2.83732 11.5575 3.27631 11.5575 3.81766C11.5575 4.35902 11.9965 4.79801 12.5379 4.79801C13.0792 4.79801 13.5182 4.35902 13.5182 3.81766C13.5182 3.27631 13.0792 2.83732 12.5379 2.83732ZM8.17567 3.98367C5.85808 3.98367 3.97947 5.8632 3.97947 8.18079C3.97947 10.4984 5.85808 12.377 8.17567 12.377C10.4933 12.377 12.3709 10.4984 12.3709 8.18079C12.3709 5.8632 10.4933 3.98367 8.17567 3.98367ZM8.17567 5.45649C11.777 5.45649 11.7816 10.9051 8.17567 10.9051C4.57524 10.9051 4.56971 5.45649 8.17567 5.45649Z" fill="white"/>
</svg>
