<svg width="179" height="39" viewBox="0 0 179 39" fill="none" xmlns="http://www.w3.org/2000/svg">
<path d="M64.719 11.4636C64.719 13.9463 63.1798 15.9584 58.9257 15.9584H51.3584V0.719116H59.0325C62.5599 0.719116 64.2913 2.60256 64.2913 4.78572C64.2913 6.1126 63.7357 7.43969 62.4316 8.0818C63.1077 8.35076 63.6873 8.81709 64.0952 9.42018C64.5031 10.0233 64.7205 10.7353 64.719 11.4636V11.4636ZM55.3772 3.99375V6.88335H58.6478C59.0271 6.90071 59.3977 6.7665 59.6782 6.51025C59.9586 6.25399 60.126 5.89667 60.1433 5.51691C60.145 5.48009 60.1453 5.44325 60.1441 5.40639C60.1441 4.5501 59.4816 3.99375 58.6478 3.99375H55.3772ZM60.5717 11.2495C60.5717 10.4148 59.9946 9.85826 58.9685 9.85826H55.3772V12.6835H58.9471C60.0158 12.6835 60.5717 12.2125 60.5717 11.2495Z" fill="black"/>
<path d="M80.7294 15.9583L80.3874 5.81303C80.1521 6.71198 79.8958 7.63237 79.5964 8.55276L77.202 15.9583H73.3115L70.9174 8.55276C70.618 7.65381 70.3829 6.75486 70.1478 5.85569L69.8058 15.9583H65.9365L66.5564 0.719055H72.1146L75.2569 11.2711L78.3992 0.719055H83.9574L84.5773 15.9583H80.7294Z" fill="black"/>
<path d="M107.684 0.719055C106.444 5.87713 105.118 10.7574 103.537 15.9583H98.6411L96.5463 6.39082L94.4298 15.9583H89.5346C87.9527 10.7574 86.6274 5.87713 85.3662 0.719055H89.7055C90.4323 3.97225 91.2661 7.46107 92.1211 10.8427L94.2802 0.719055H98.7908L100.95 10.8427C101.805 7.46107 102.638 3.97225 103.365 0.719055H107.684Z" fill="black"/>
<path d="M65.5289 37.3737L65.187 27.23C64.9518 28.1289 64.6953 29.0491 64.3962 29.9693L62.0022 37.3737H58.1122L55.7185 29.9693C55.4193 29.0706 55.1842 28.1718 54.9491 27.2731L54.6069 37.3737H50.7383L51.3582 22.1369H56.9154L60.0573 32.6871L63.1992 22.1369H68.7562L69.3761 37.3737H65.5289Z" fill="black"/>
<path d="M70.4878 29.7553C70.4878 24.8974 74.5487 21.7945 78.9304 21.7945C83.3121 21.7945 87.373 24.8974 87.373 29.7553C87.373 34.6132 83.3121 37.7161 78.9304 37.7161C74.5487 37.7161 70.4878 34.6132 70.4878 29.7553ZM83.2264 29.7553C83.2221 28.6137 82.7652 27.5205 81.9562 26.716C81.1472 25.9116 80.0522 25.4617 78.912 25.4652C77.7718 25.4687 76.6796 25.9254 75.8756 26.7349C75.0716 27.5444 74.6215 28.6404 74.6242 29.782C74.6269 30.9236 75.0823 32.0174 75.8902 32.823C76.6981 33.6286 77.7925 34.08 78.9327 34.0781C80.0729 34.0761 81.1657 33.6209 81.9708 32.8126C82.776 32.0042 83.2276 30.9089 83.2265 29.7673L83.2264 29.7553Z" fill="black"/>
<path d="M100.304 25.5824H95.88V37.3737H91.8189V25.5824H87.416V22.1369H100.304V25.5824Z" fill="black"/>
<path d="M100.348 29.7553C100.348 24.8974 104.408 21.7945 108.79 21.7945C113.172 21.7945 117.233 24.8974 117.233 29.7553C117.233 34.6132 113.172 37.7161 108.79 37.7161C104.408 37.7161 100.348 34.6132 100.348 29.7553ZM113.086 29.7553C113.082 28.6137 112.625 27.5205 111.816 26.7161C111.007 25.9116 109.912 25.4617 108.772 25.4653C107.632 25.4689 106.54 25.9256 105.735 26.7351C104.931 27.5446 104.481 28.6406 104.484 29.7822C104.487 30.9238 104.942 32.0176 105.75 32.8231C106.558 33.6287 107.653 34.0801 108.793 34.0781C109.933 34.0761 111.026 33.6209 111.831 32.8125C112.636 32.0041 113.088 30.9087 113.086 29.7671L113.086 29.7553Z" fill="black"/>
<path d="M131.938 37.288V37.3737H127.578C127.287 36.529 126.952 35.7004 126.573 34.8913C126.207 34.1338 125.785 33.4043 125.312 32.7086H122.769V37.3737H118.708V22.1369H125.376C129.672 22.1369 131.275 24.6837 131.275 27.1447C131.297 27.9836 131.097 28.8133 130.696 29.5499C130.294 30.2864 129.705 30.9036 128.988 31.3388C129.618 32.2495 130.176 33.2083 130.656 34.2065C131.137 35.2102 131.565 36.2388 131.938 37.288H131.938ZM122.769 29.3701H125.355C126.445 29.3701 127.279 28.6641 127.279 27.4227C127.279 26.2031 126.445 25.4754 125.355 25.4754H122.769V29.3701Z" fill="black"/>
<path d="M146.707 37.288V37.3737H142.347C142.057 36.529 141.721 35.7004 141.343 34.8913C140.976 34.1338 140.555 33.4043 140.082 32.7086H137.538V37.3737H133.477V22.1369H140.146C144.442 22.1369 146.045 24.6837 146.045 27.1447C146.067 27.9836 145.867 28.8133 145.465 29.5499C145.063 30.2864 144.475 30.9036 143.758 31.3388C144.388 32.2495 144.945 33.2083 145.425 34.2065C145.907 35.2102 146.335 36.2388 146.707 37.288H146.707ZM137.538 29.3701H140.124C141.214 29.3701 142.048 28.6641 142.048 27.4227C142.048 26.2031 141.214 25.4754 140.124 25.4754H137.538V29.3701Z" fill="black"/>
<path d="M158.292 34.4207H152.607C152.35 35.405 152.094 36.3895 151.859 37.3737H147.776C149.123 31.8096 150.683 26.8878 152.714 22.1369H158.228C160.258 26.8878 161.819 31.8096 163.144 37.3737H159.04C158.805 36.3895 158.548 35.405 158.292 34.4207ZM157.309 30.8895C156.71 28.7708 156.069 26.8023 155.449 25.2186C154.808 26.8023 154.188 28.7708 153.569 30.8895H157.309Z" fill="black"/>
<path d="M178.832 29.7553C178.832 34.0567 175.541 37.3737 170.198 37.3737H164.405V22.1369H170.198C175.541 22.1369 178.832 25.454 178.832 29.7553ZM174.686 29.7553C174.686 26.9948 172.549 25.6465 170.198 25.6465H168.466V33.8641H170.198C172.549 33.8641 174.686 32.5158 174.686 29.7553Z" fill="black"/>
<path d="M19.0235 0C13.9781 3.57595e-05 9.13941 2.00681 5.57182 5.57885C2.00422 9.15089 -1.78575e-05 13.9956 1.19332e-10 19.0472C1.78578e-05 24.0988 2.00429 28.9435 5.57191 32.5155C9.13953 36.0875 13.9783 38.0943 19.0236 38.0943C24.069 38.0943 28.9077 36.0875 32.4753 32.5155C36.043 28.9435 38.0472 24.0988 38.0472 19.0472C38.0473 13.9956 36.043 9.15089 32.4754 5.57885C28.9078 2.00681 24.0691 3.57595e-05 19.0238 0L19.0235 0ZM36.8101 19.0473C36.8101 22.5695 35.7669 26.0126 33.8125 28.9412C31.8581 31.8698 29.0802 34.1524 25.8301 35.5003C22.5801 36.8482 19.0038 37.2008 15.5535 36.5137C12.1032 35.8265 8.93396 34.1304 6.44646 31.6398C3.95896 29.1493 2.26495 25.9761 1.57865 22.5216C0.892348 19.067 1.24458 15.4863 2.59081 12.2322C3.93703 8.97812 6.21679 6.1968 9.14178 4.23997C12.0668 2.28314 15.5056 1.23868 19.0235 1.23868C21.3593 1.23868 23.6722 1.69931 25.8301 2.59428C27.9881 3.48924 29.9489 4.80102 31.6005 6.4547C33.2522 8.10838 34.5623 10.0716 35.4562 12.2322C36.35 14.3929 36.8101 16.7086 36.8101 19.0473Z" fill="black"/>
<path d="M19.0231 7.75201V8.37113C21.85 8.37436 24.5603 9.50019 26.5592 11.5016C28.5582 13.5031 29.6825 16.2167 29.6857 19.0471H30.3043C30.3043 16.0515 29.1157 13.1785 27.0001 11.0603C24.8845 8.94206 22.015 7.75204 19.0231 7.75201ZM19.0231 29.7229C16.1962 29.7197 13.486 28.5939 11.487 26.5925C9.48811 24.5911 8.36371 21.8775 8.3605 19.0471H7.7417C7.74169 20.5305 8.03349 21.9993 8.60043 23.3697C9.16736 24.7401 9.99834 25.9853 11.0459 27.0341C12.0935 28.083 13.3371 28.915 14.7058 29.4827C16.0745 30.0503 17.5415 30.3425 19.023 30.3425H19.0231" fill="black"/>
<path d="M28.2429 10.9664C28.5009 11.2445 28.8731 11.6925 29.0824 11.9644L32.9347 9.51578C32.7422 9.26358 32.4362 8.88053 32.2064 8.61131L29.7672 10.2264L29.601 10.3703L29.7255 10.1884L30.8024 8.03551L30.0412 7.27338L27.8905 8.35203L27.7093 8.47603L27.8537 8.30893L29.4676 5.86738C29.184 5.62534 28.9111 5.40364 28.5627 5.13464L26.1167 8.98883C26.4266 9.22777 26.8348 9.57789 27.0949 9.81639L29.3972 8.62059L29.5445 8.51206L29.4361 8.65971L28.2429 10.9664Z" fill="black"/>
<path d="M19.5024 6.08249L20.555 3.72205L20.6219 3.51295L20.6029 3.73156L20.7138 6.88573C21.0829 6.92088 21.4641 6.97193 21.8405 7.03449L21.6692 2.36202C21.1431 2.30411 20.6197 2.26234 20.0961 2.24023L19.0596 4.81684L19.0232 5.00804L18.9865 4.81684L17.95 2.24023C17.4266 2.26234 16.903 2.30411 16.3769 2.36202L16.2056 7.03449C16.582 6.97193 16.9632 6.92088 17.3323 6.88573L17.4432 3.73156L17.424 3.51295L17.4913 3.72205L18.5437 6.08249H19.5024Z" fill="black"/>
<path d="M10.9884 9.80568C11.5966 9.16401 11.9419 8.42222 11.3326 7.71424C11.1649 7.53287 10.9448 7.40851 10.7031 7.35858C10.4613 7.30864 10.21 7.33562 9.98438 7.43574L9.93868 7.45408L9.95369 7.41385C10.011 7.20305 10.0051 6.98005 9.93672 6.77258C9.86838 6.56511 9.74062 6.38234 9.56934 6.24701C9.45012 6.15308 9.31348 6.08373 9.16733 6.04299C9.02118 6.00224 8.86842 5.9909 8.71786 6.00962C8.14675 6.06775 7.70655 6.45854 6.50935 7.79536C6.14863 8.19831 5.62277 8.83467 5.30664 9.24712L8.59379 12.3695C9.68613 11.1606 10.1299 10.7113 10.9884 9.80568ZM6.69965 9.04222C7.22339 8.39582 7.78613 7.78212 8.38473 7.20453C8.48027 7.10519 8.59789 7.02983 8.72802 6.9846C8.78018 6.97277 8.83416 6.97134 8.88687 6.98039C8.93959 6.98945 8.99001 7.00881 9.03525 7.03737C9.08049 7.06593 9.11967 7.10314 9.15055 7.14686C9.18143 7.19059 9.20341 7.23997 9.21523 7.2922L9.21701 7.30046C9.22698 7.41406 9.21005 7.5284 9.16758 7.63421C9.12512 7.74002 9.05832 7.83431 8.97262 7.90941C8.62227 8.3044 7.33898 9.64962 7.33898 9.64962L6.69965 9.04222ZM7.98625 10.2645C7.98625 10.2645 9.2371 8.94143 9.64462 8.5177C9.75191 8.38925 9.87969 8.27945 10.0228 8.19278C10.0903 8.15364 10.1673 8.1338 10.2454 8.13539C10.3234 8.13699 10.3995 8.15997 10.4654 8.20184C10.532 8.24523 10.5837 8.30793 10.6137 8.38157C10.6437 8.4552 10.6505 8.53624 10.6332 8.61385C10.5693 8.80723 10.4581 8.98148 10.3096 9.12069C10.1374 9.30592 8.65406 10.8952 8.65208 10.8971L7.98625 10.2645Z" fill="black"/>
<path d="M19.0234 7.75201V19.0471H7.74219C7.74144 17.5646 8.03235 16.0964 8.5983 14.7264C9.16426 13.3564 9.99417 12.1115 11.0407 11.0626C12.0872 10.0138 13.3297 9.18159 14.6975 8.61355C16.0652 8.04551 17.5313 7.75276 19.012 7.75201C19.0158 7.75201 19.0196 7.75201 19.0234 7.75201Z" fill="#0066B1"/>
<path d="M30.3043 19.0472C30.3051 20.5297 30.0142 21.9979 29.4483 23.3679C28.8823 24.7379 28.0524 25.9829 27.0059 27.0318C25.9594 28.0806 24.7169 28.9129 23.3491 29.4809C21.9814 30.049 20.5153 30.3418 19.0346 30.3425H19.0229V19.0472H30.3043Z" fill="#0066B1"/>
</svg>
