<svg width="29" height="20" viewBox="0 0 29 20" fill="none" xmlns="http://www.w3.org/2000/svg">
<path d="M4.21856 11.6667C4.90981 11.6667 5.55317 11.8474 6.12952 12.1398L7.2699 10.8012C6.76431 10.5061 6.21741 10.2791 5.63931 10.1513C5.16799 10.0464 4.70086 10.008 4.21394 10.0009C3.58508 10.0056 2.96633 9.76063 2.50337 9.30751C2.02041 8.8355 1.74356 8.17882 1.74356 7.40234C1.74356 3.13433 5.38399 0 9.22766 0H10.1811C10.6473 0 11.0248 0.37283 11.0248 0.833333C11.0248 1.29384 10.6473 1.66667 10.1811 1.66667H9.22766C8.97629 1.66667 8.73657 1.70942 8.49356 1.74023V3.35048C8.98355 3.39431 9.44497 3.54405 9.88157 3.74479C9.88706 3.7385 9.89409 3.73438 9.89937 3.72808C10.5919 4.04796 11.1889 4.54818 11.6214 5.1888L13.542 8.03385C13.6738 8.2283 13.8815 8.35938 14.1164 8.39518C15.8245 8.65451 17.3052 9.73003 18.0829 11.3006C17.3622 12.3644 16.9311 13.6317 16.9311 15H18.6748C18.6748 12.2428 20.9457 10 23.7373 10C26.5289 10 28.7998 12.2428 28.7998 15C28.7998 17.7572 26.5289 20 23.7373 20C21.5403 20 19.6847 18.6024 18.9857 16.6667H11.0248C10.5585 16.6667 10.1811 16.2938 10.1811 15.8333C10.1811 15.3702 10.125 14.8974 10.0154 14.4288C9.78555 13.4557 9.27315 12.5701 8.5854 11.8466L7.44656 13.1832C8.05586 13.9056 8.43731 14.8218 8.43731 15.8333C8.43731 18.1306 6.54458 20 4.21856 20C1.89253 20 -0.00019455 18.1306 -0.00019455 15.8333C-0.00019455 13.536 1.89253 11.6667 4.21856 11.6667ZM23.7373 18.3333C25.5986 18.3333 27.1123 16.8383 27.1123 15C27.1123 13.1617 25.5986 11.6667 23.7373 11.6667C21.876 11.6667 20.3623 13.1617 20.3623 15H22.8936C23.3592 15 23.7373 14.6265 23.7373 14.1667C23.7373 13.7062 24.1148 13.3333 24.5811 13.3333C25.0473 13.3333 25.4248 13.7062 25.4248 14.1667C25.4248 15.5451 24.2893 16.6667 22.8936 16.6667H20.8316C21.417 17.6582 22.4934 18.3333 23.7373 18.3333ZM4.21856 18.3333C5.61426 18.3333 6.74981 17.2118 6.74981 15.8333C6.74981 15.3505 6.60413 14.9032 6.36309 14.5204L4.87774 16.3542C4.5844 16.7155 4.0531 16.77 3.69121 16.4844C3.32778 16.1962 3.26846 15.6723 3.55938 15.3125L5.04297 13.4809C4.78325 13.3917 4.50881 13.3333 4.21856 13.3333C2.82285 13.3333 1.68731 14.4549 1.68731 15.8333C1.68731 17.2118 2.82285 18.3333 4.21856 18.3333Z" fill="#fff"/>
<path d="M14.3824 6.39998L12.9458 4.23087C12.4866 3.53721 11.8843 2.97366 11.2002 2.53606C12.1204 1.9512 13.1812 1.59998 14.3117 1.59998C16.2929 1.59998 18.123 2.61651 19.2002 4.24669L17.859 5.05684C16.7816 5.70742 15.6018 6.14304 14.3824 6.39998Z" fill="#fff"/>
<path d="M18.9902 6.2575L24.3218 3.20001H27.969C28.4281 3.20001 28.7998 3.559 28.7998 4.00242C28.7998 6.21446 26.9361 8.01443 24.6457 8.01443C22.9838 8.01443 21.2599 8.04933 19.4128 9.60001C19.4057 9.58727 19.4057 9.57285 19.3976 9.56052C18.7531 8.55961 17.8431 7.78353 16.7998 7.23815C17.5551 6.97131 18.2946 6.66038 18.9902 6.2575Z" fill="#fff"/>
</svg>
