<svg width="21" height="21" viewBox="0 0 21 21" fill="none" xmlns="http://www.w3.org/2000/svg">
<path d="M20.0133 18.4016L15.6671 14.0553C16.7304 12.654 17.3643 10.9041 17.3643 9.00714C17.3643 4.39344 13.6209 0.65 9.00714 0.65C4.38945 0.65 0.65 4.39355 0.65 9.00714C0.65 13.6207 4.38945 17.3643 9.00714 17.3643C10.9038 17.3643 12.6503 16.734 14.0516 15.6708L18.3992 20.0148C18.3993 20.0149 18.3993 20.0149 18.3994 20.0149C18.846 20.4615 19.5671 20.4617 20.0141 20.0156C20.4619 19.5725 20.462 18.8458 20.0143 18.4026C20.014 18.4022 20.0136 18.4019 20.0133 18.4016ZM9.00714 15.0706C5.6601 15.0706 2.9398 12.35 2.9398 9.00714C2.9398 5.66398 5.66038 2.9398 9.00714 2.9398C12.3502 2.9398 15.0745 5.66412 15.0745 9.00714C15.0745 12.3499 12.3504 15.0706 9.00714 15.0706Z" fill="#393939" stroke="#393939" stroke-width="0.7"/>
</svg>
