<svg width="20" height="15" viewBox="0 0 20 15" fill="none" xmlns="http://www.w3.org/2000/svg">
<path d="M17.5045 0.9H2.59037C1.65934 0.9 0.9 1.6585 0.9 2.59037V13.1928C0.9 14.1215 1.65591 14.8832 2.59037 14.8832H17.5045C18.4332 14.8832 19.1949 14.1273 19.1949 13.1928V2.59037C19.1949 1.66172 18.439 0.9 17.5045 0.9ZM10.0808 9.1229L3.058 2.16025H17.0435L10.0808 9.1229ZM7.02463 7.86749L2.16025 12.7319V3.04482L7.02463 7.86749ZM10.5284 10.4576L12.2033 8.78272L17.0435 13.623H3.05137L7.91958 8.75475L9.63917 10.4596C9.8855 10.7038 10.283 10.703 10.5284 10.4576C10.5284 10.4576 10.5284 10.4576 10.5284 10.4576ZM17.9346 3.05133V12.7318L13.0944 7.8916L17.9346 3.05133Z" fill="white" stroke="white" stroke-width="0.2"/>
</svg>
