<svg width="75" height="75" viewBox="0 0 75 75" fill="none" xmlns="http://www.w3.org/2000/svg">
<path d="M45.586 49.9165C45.586 49.6563 45.4946 49.3958 45.3125 49.1356C43.854 47.39 42.6824 45.8927 41.7966 44.6435C42.3435 43.576 42.7603 42.5862 43.0459 41.6755L49.1008 40.7381C49.3359 40.7115 49.5443 40.5753 49.7264 40.3284C49.9085 40.08 49.9988 39.8266 49.9988 39.5662V32.3392C49.9988 32.0531 49.9085 31.7989 49.7264 31.5779C49.5443 31.357 49.3227 31.2197 49.0624 31.1684L43.1245 30.27C42.8374 29.3843 42.3951 28.3161 41.7962 27.0666C42.1863 26.4934 42.773 25.7119 43.5543 24.7228C44.3354 23.733 44.8833 23.0302 45.1949 22.6135C45.3776 22.3531 45.4684 22.1055 45.4684 21.8714C45.4684 21.1681 43.5932 19.0848 39.8442 15.6211C39.584 15.4131 39.3105 15.309 39.0231 15.309C38.7113 15.309 38.4509 15.3992 38.2416 15.5822L33.632 19.0588C32.5647 18.5121 31.5881 18.1086 30.7026 17.8474L29.8041 11.8712C29.7785 11.6108 29.6481 11.3826 29.4138 11.1875C29.1793 10.9923 28.9189 10.8944 28.6321 10.8944H21.3671C20.7682 10.8944 20.3776 11.2069 20.1953 11.8318C19.8826 13.0299 19.5834 15.0355 19.2969 17.8474C18.1773 18.2119 17.1747 18.6286 16.2893 19.0974L11.7973 15.5821C11.5369 15.3994 11.2636 15.3089 10.9769 15.3089C10.4815 15.3089 9.45305 16.077 7.89073 17.6137C6.32812 19.1499 5.25984 20.3088 4.6874 21.0901C4.50488 21.2988 4.41417 21.5591 4.41417 21.8716C4.41417 22.1057 4.50474 22.3661 4.6874 22.6526C6.14547 24.3979 7.31718 25.8952 8.20281 27.1446C7.65608 28.2129 7.23961 29.202 6.95338 30.1133L0.898486 31.0502C0.663843 31.0762 0.455742 31.2128 0.273226 31.4597C0.091121 31.7076 0 31.9612 0 32.2214V39.448C0 39.7346 0.091121 39.9883 0.273226 40.2093C0.455742 40.4312 0.67684 40.5547 0.937753 40.5806L6.87512 41.5181C7.18762 42.5073 7.64377 43.5754 8.24262 44.7211C7.82587 45.2945 7.21416 46.0892 6.40679 47.1042C5.59888 48.1204 5.06529 48.8105 4.80506 49.1747C4.62282 49.4351 4.53156 49.6833 4.53156 49.9164C4.53156 50.6206 6.40679 52.7032 10.1567 56.1672C10.4171 56.375 10.6902 56.4785 10.9771 56.4785C11.3156 56.4785 11.5759 56.3882 11.758 56.2055L16.3673 52.7295C17.4346 53.2764 18.4112 53.6794 19.297 53.9399L20.1955 59.9167C20.2212 60.1769 20.3517 60.4054 20.5858 60.6003C20.8202 60.7955 21.0806 60.8929 21.3672 60.8929H28.6323C29.2315 60.8929 29.6219 60.5807 29.8042 59.9556C30.1167 58.7312 30.416 56.7132 30.7027 53.9005C31.744 53.5893 32.7465 53.1843 33.7103 52.6902L38.2024 56.2055C38.4628 56.3882 38.7362 56.4785 39.0228 56.4785C39.5177 56.4785 40.5402 55.7041 42.0896 54.1538C43.6384 52.6054 44.7131 51.439 45.3123 50.6581C45.4946 50.4764 45.586 50.2293 45.586 49.9165ZM32.0698 42.9645C30.1171 44.9169 27.7602 45.8935 25 45.8935C22.2391 45.8935 19.8822 44.9168 17.9295 42.9645C15.9766 41.0112 14.9999 38.6541 14.9999 35.8937C14.9999 33.1336 15.9766 30.7766 17.9295 28.8236C19.8822 26.8706 22.2393 25.8942 25 25.8942C27.7602 25.8942 30.1171 26.8704 32.0698 28.8236C34.0232 30.7766 34.9995 33.1336 34.9995 35.8937C34.9995 38.6541 34.0233 41.0112 32.0698 42.9645Z" fill="#393939"/>
<path d="M69.179 50.3223C68.8409 49.5675 68.4499 48.8905 68.0075 48.2911C69.3359 45.3479 69.9993 43.5509 69.9993 42.9002C69.9993 42.7972 69.9483 42.7053 69.8434 42.6272C66.7176 40.8045 65.1036 39.8929 64.9993 39.8929L64.7652 39.9714C63.6976 41.0396 62.4991 42.4975 61.1715 44.3465C60.6509 44.2946 60.2609 44.268 60.0005 44.268C59.7393 44.268 59.3492 44.2946 58.8281 44.3465C58.4649 43.7992 57.7869 42.9199 56.7974 41.7096C55.8082 40.4993 55.2088 39.893 55.0005 39.893C54.9485 39.893 54.558 40.1013 53.8285 40.519C53.0995 40.9357 52.3313 41.3777 51.5239 41.8474C50.7159 42.3171 50.2612 42.5763 50.1568 42.6287C50.0519 42.7064 50.0003 42.7982 50.0003 42.9013C50.0003 43.5531 50.6643 45.3487 51.9922 48.2922C51.5503 48.8916 51.1592 49.5686 50.8208 50.3229C46.9402 50.7129 45 51.1171 45 51.5337V57.0021C45 57.4188 46.9402 57.8224 50.8208 58.2129C51.1326 58.9163 51.5236 59.5933 51.9922 60.2431C50.6643 63.1864 50.0003 64.9834 50.0003 65.6341C50.0003 65.738 50.0519 65.8298 50.1568 65.9076C53.3332 67.7565 54.9485 68.6809 55.0005 68.6809C55.2087 68.6809 55.8081 68.0689 56.7974 66.8449C57.7868 65.6207 58.4639 64.7361 58.8281 64.1893C59.3488 64.2403 59.7393 64.2664 60.0005 64.2664C60.2607 64.2664 60.6509 64.2403 61.1715 64.1893C61.5353 64.7361 62.2129 65.6207 63.2022 66.8449C64.1915 68.0689 64.7904 68.6809 64.9993 68.6809C65.0513 68.6809 66.6667 67.7561 69.8434 65.9076C69.9483 65.8298 69.9993 65.7386 69.9993 65.6341C69.9993 64.9832 69.3351 63.1862 68.0075 60.2431C68.4763 59.5933 68.8666 58.9163 69.179 58.2129C73.0594 57.8224 74.9998 57.4188 74.9998 57.0021V51.5337C74.9998 51.1169 73.0594 50.7128 69.179 50.3223ZM63.5341 57.8024C62.5589 58.7792 61.3799 59.2684 59.9995 59.2684C58.6188 59.2684 57.4404 58.7792 56.4646 57.8024C55.4878 56.8257 54.999 55.6478 54.999 54.2675C54.999 52.9138 55.4944 51.741 56.4841 50.7522C57.4733 49.7629 58.6455 49.2678 59.9994 49.2678C61.3531 49.2678 62.5259 49.7623 63.5156 50.7522C64.5046 51.7411 65 52.9139 65 54.2675C64.9992 55.6478 64.5113 56.8257 63.5341 57.8024Z" fill="#393939"/>
<path d="M69.179 13.5356C68.8409 12.7803 68.4499 12.1034 68.0075 11.504C69.3359 8.56169 69.9993 6.76472 69.9993 6.11373C69.9993 6.01003 69.9483 5.91849 69.8434 5.84023C66.7176 4.0174 65.1036 3.10605 64.9993 3.10605L64.7652 3.18404C63.6976 4.25232 62.4991 5.71026 61.1715 7.55908C60.6509 7.50737 60.2609 7.4811 60.0005 7.4811C59.7393 7.4811 59.3492 7.50737 58.8281 7.55908C58.4649 7.01222 57.7869 6.13344 56.7974 4.92259C55.8082 3.71148 55.2088 3.10619 55.0005 3.10619C54.9485 3.10619 54.558 3.31429 53.8285 3.73131C53.0995 4.14847 52.3313 4.59094 51.5239 5.05982C50.7159 5.52883 50.2612 5.78906 50.1568 5.84078C50.0519 5.9189 50.0003 6.01002 50.0003 6.11428C50.0003 6.76526 50.6643 8.56237 51.9922 11.5048C51.5503 12.1041 51.1592 12.7809 50.8208 13.5361C46.9402 13.9265 45 14.33 45 14.7467V20.2155C45 20.6319 46.9402 21.0358 50.8208 21.426C51.1326 22.1289 51.5236 22.8063 51.9922 23.4574C50.6643 26.4003 50.0003 28.1966 50.0003 28.8479C50.0003 28.9515 50.0519 29.043 50.1568 29.1211C53.3332 30.9699 54.9485 31.8944 55.0005 31.8944C55.2087 31.8944 55.8081 31.2827 56.7974 30.0586C57.7868 28.8345 58.4639 27.9495 58.8281 27.4024C59.3488 27.4541 59.7393 27.4805 60.0005 27.4805C60.2607 27.4805 60.6509 27.4541 61.1715 27.4024C61.5353 27.9495 62.2129 28.8343 63.2022 30.0586C64.1915 31.2827 64.7904 31.8944 64.9993 31.8944C65.0513 31.8944 66.6667 30.9699 69.8434 29.1211C69.9483 29.043 69.9993 28.9519 69.9993 28.8479C69.9993 28.1966 69.3351 26.4003 68.0075 23.4574C68.4763 22.8063 68.8666 22.1293 69.179 21.426C73.0594 21.0357 74.9998 20.6319 74.9998 20.2155V14.7467C74.9998 14.33 73.0594 13.9263 69.179 13.5356ZM63.5341 21.016C62.5589 21.9927 61.3799 22.481 59.9995 22.481C58.6188 22.481 57.4404 21.9927 56.4646 21.016C55.4878 20.0398 54.999 18.8612 54.999 17.481C54.999 16.1269 55.4944 14.9548 56.4841 13.9652C57.4733 12.9756 58.6455 12.4807 59.9994 12.4807C61.3531 12.4807 62.5259 12.9761 63.5156 13.9652C64.5046 14.9547 65 16.1269 65 17.481C64.9992 18.8612 64.5113 20.0398 63.5341 21.016Z" fill="#393939"/>
</svg>
