<svg width="7" height="11" viewBox="0 0 7 11" fill="none" xmlns="http://www.w3.org/2000/svg">
<path d="M0.170859 5.82146L4.94298 10.6275C5.05335 10.7388 5.20069 10.8 5.3578 10.8C5.5149 10.8 5.66224 10.7388 5.77261 10.6275L6.12404 10.2737C6.35272 10.0431 6.35272 9.66834 6.12404 9.43812L2.11678 5.40229L6.12849 1.36198C6.23886 1.25073 6.29981 1.10243 6.29981 0.944295C6.29981 0.785984 6.23886 0.637684 6.12849 0.526348L5.77706 0.172584C5.6666 0.0613365 5.51935 4.85692e-05 5.36224 4.85554e-05C5.20514 4.85417e-05 5.0578 0.0613364 4.94743 0.172584L0.170859 4.98302C0.0602241 5.09462 -0.000542155 5.24363 -0.000193601 5.40202C-0.000542183 5.56104 0.060224 5.70995 0.170859 5.82146Z" fill="white"/>
</svg>
