<svg width="15" height="12" viewBox="0 0 15 12" fill="none" xmlns="http://www.w3.org/2000/svg">
<path d="M0.000850593 10.661C1.35887 11.5092 2.96977 12 4.69659 12C9.54788 12 13.4805 8.12678 13.4805 3.34974C13.4805 3.23047 13.4779 3.11207 13.4733 2.99404C13.6487 2.85805 14.734 2.00145 15 1.45076C15 1.45076 14.1187 1.81145 13.2562 1.89642C13.2545 1.89642 13.2524 1.89681 13.2507 1.89681C13.2507 1.89681 13.2524 1.89598 13.2553 1.8939C13.3348 1.84161 14.4459 1.09674 14.5964 0.209224C14.5964 0.209224 13.973 0.536882 13.1002 0.823534C12.9557 0.870802 12.8045 0.917277 12.6485 0.960356C12.0859 0.369062 11.2863 0 10.3986 0C8.69595 0 7.31627 1.3583 7.31627 3.03376C7.31627 3.27019 7.34389 3.50032 7.39615 3.72127C7.15821 3.71166 3.53491 3.51161 1.06998 0.571981C1.06998 0.571981 -0.403196 2.55253 1.94788 4.58912C1.94788 4.58912 1.23318 4.56107 0.616592 4.19827C0.616592 4.19827 0.390121 6.59767 3.05265 7.21114C3.05265 7.21114 2.52874 7.40656 1.69293 7.26723C1.69293 7.26723 2.16033 9.20593 4.52587 9.38711C4.52587 9.38711 2.65532 11.0512 0 10.6607L0.000850593 10.661Z" fill="white"/>
</svg>
