<svg width="18" height="14" viewBox="0 0 18 14" fill="none" xmlns="http://www.w3.org/2000/svg">
    <path d="M17.8675 3.39745L17.8667 3.38921C17.8515 3.24432 17.6997 1.95563 17.0732 1.30016C16.3491 0.52919 15.5282 0.435532 15.1333 0.390625C15.1006 0.386917 15.0707 0.383484 15.0439 0.379913L15.0125 0.376617C12.6329 0.203583 9.0391 0.179962 9.00312 0.179825L8.99996 0.179688L8.99681 0.179825C8.96083 0.179962 5.36707 0.203583 2.96602 0.376617L2.9343 0.379913C2.90876 0.383347 2.8806 0.386505 2.84998 0.390076C2.45969 0.43512 1.64753 0.528915 0.921337 1.32776C0.324645 1.97623 0.15216 3.23732 0.134445 3.37904L0.132385 3.39745C0.127029 3.45773 0 4.89296 0 6.33382V7.68074C0 9.1216 0.127029 10.5568 0.132385 10.6172L0.133346 10.6263C0.148589 10.7689 0.3002 12.0339 0.923809 12.6897C1.60468 13.4348 2.4656 13.5334 2.92867 13.5864C3.00187 13.5948 3.0649 13.602 3.10788 13.6095L3.14949 13.6153C4.52347 13.746 8.83133 13.8104 9.01397 13.813L9.01947 13.8132L9.02496 13.813C9.06094 13.8129 12.6546 13.7893 15.0342 13.6162L15.0656 13.6129C15.0957 13.609 15.1295 13.6054 15.1666 13.6015C15.5547 13.5603 16.3624 13.4748 17.0786 12.6868C17.6753 12.0382 17.8479 10.7771 17.8655 10.6355L17.8675 10.6171C17.8729 10.5567 18.0001 9.1216 18.0001 7.68074V6.33382C17.9999 4.89296 17.8729 3.45787 17.8675 3.39745ZM16.9451 7.68074C16.9451 9.01434 16.8287 10.3878 16.8177 10.5138C16.7729 10.8611 16.5909 11.659 16.3002 11.975C15.852 12.4682 15.3915 12.5171 15.0553 12.5526C15.0147 12.5569 14.9771 12.561 14.943 12.5653C12.6414 12.7317 9.1833 12.7572 9.024 12.7582C8.84533 12.7556 4.60051 12.6906 3.26842 12.5669C3.20017 12.5558 3.12642 12.5473 3.04869 12.5385C2.65442 12.4933 2.11472 12.4315 1.69972 11.975L1.68997 11.9646C1.40432 11.667 1.22758 10.9209 1.18267 10.518C1.1743 10.4227 1.05482 9.03302 1.05482 7.68074V6.33382C1.05482 5.00172 1.171 3.62981 1.18226 3.50113C1.23568 3.09203 1.42108 2.34248 1.69972 2.03954C2.16169 1.53142 2.64879 1.47511 2.97097 1.4379C3.00173 1.43433 3.03043 1.43103 3.05693 1.4276C5.39207 1.26033 8.875 1.23547 8.99996 1.23451C9.12493 1.23534 12.6066 1.26033 14.921 1.4276C14.9495 1.43117 14.9805 1.43474 15.0139 1.43858C15.3452 1.47635 15.8461 1.53348 16.3057 2.02374L16.31 2.02827C16.5956 2.32587 16.7724 3.08502 16.8173 3.49605C16.8252 3.586 16.9451 4.97865 16.9451 6.33382V7.68074Z" fill="white"/>
    <path d="M11.7706 6.19116L7.79394 4.01532C7.56529 3.89022 7.29503 3.89488 7.07091 4.02768C6.84665 4.16062 6.71289 4.39545 6.71289 4.6561V8.97043C6.71289 9.22984 6.84582 9.46426 7.06857 9.59734C7.18489 9.66682 7.31384 9.70171 7.44307 9.70171C7.56144 9.70171 7.6801 9.67246 7.78927 9.61368L11.766 7.47533C12.0021 7.3483 12.1495 7.10289 12.1505 6.83469C12.1515 6.56648 12.0059 6.31998 11.7706 6.19116ZM7.76771 8.4277V5.20322L10.7398 6.82947L7.76771 8.4277Z" fill="white"/>
</svg>
